name ./resultDataOpenSim/trcMotMarkerGrf/sub06/grf-01-02.mot
datacolumns 19
datarows 15
range 0.50400000 0.56000000
endheader

                time	     ground_force_vx	     ground_force_vy	     ground_force_vz	     ground_force_px	     ground_force_py	     ground_force_pz	   l_ground_force_vx	   l_ground_force_vy	   l_ground_force_vz	   l_ground_force_px	   l_ground_force_py	   l_ground_force_pz	     ground_torque_x	     ground_torque_y	     ground_torque_z	   l_ground_torque_x	   l_ground_torque_y	   l_ground_torque_z	
          0.50400000	         91.65261641	        637.22187839	        -23.43891799	         -0.78836438	          0.00000000	          0.06556138	          0.00000000	          0.00000000	          0.00000000	          0.00000000	          0.00000000	          0.00000000	          0.00000000	          2.29133216	          0.00000000	          0.00000000	          0.00000000	          0.00000000	
          0.50800000	         97.65694011	        653.19652396	        -23.33987682	         -0.78804060	          0.00000000	          0.06527293	          0.00000000	          0.00000000	          0.00000000	          0.00000000	          0.00000000	          0.00000000	          0.00000000	          2.41345379	          0.00000000	          0.00000000	          0.00000000	          0.00000000	
          0.51200000	        103.41254227	        668.62848941	        -23.48628411	         -0.78767285	          0.00000000	          0.06501495	          0.00000000	          0.00000000	          0.00000000	          0.00000000	          0.00000000	          0.00000000	          0.00000000	          2.52321618	          0.00000000	          0.00000000	          0.00000000	          0.00000000	
          0.51600000	        108.96719736	        683.41822029	        -23.92134837	         -0.78727173	          0.00000000	          0.06478529	          0.00000000	          0.00000000	          0.00000000	          0.00000000	          0.00000000	          0.00000000	          0.00000000	          2.61424214	          0.00000000	          0.00000000	          0.00000000	          0.00000000	
          0.52000000	        114.44514713	        697.45847833	        -24.64352408	         -0.78685146	          0.00000000	          0.06458320	          0.00000000	          0.00000000	          0.00000000	          0.00000000	          0.00000000	          0.00000000	          0.00000000	          2.68142047	          0.00000000	          0.00000000	          0.00000000	          0.00000000	
          0.52400000	        120.00018213	        710.65209718	        -25.60415574	         -0.78642338	          0.00000000	          0.06440779	          0.00000000	          0.00000000	          0.00000000	          0.00000000	          0.00000000	          0.00000000	          0.00000000	          2.72224974	          0.00000000	          0.00000000	          0.00000000	          0.00000000	
          0.52800000	        125.76840927	        722.91765063	        -26.71552346	         -0.78599928	          0.00000000	          0.06425433	          0.00000000	          0.00000000	          0.00000000	          0.00000000	          0.00000000	          0.00000000	          0.00000000	          2.73749050	          0.00000000	          0.00000000	          0.00000000	          0.00000000	
          0.53200000	        131.83034384	        734.17951169	        -27.86787371	         -0.78558913	          0.00000000	          0.06411637	          0.00000000	          0.00000000	          0.00000000	          0.00000000	          0.00000000	          0.00000000	          0.00000000	          2.73095539	          0.00000000	          0.00000000	          0.00000000	          0.00000000	
          0.53600000	        138.19443505	        744.35668967	        -28.95012586	         -0.78519421	          0.00000000	          0.06398879	          0.00000000	          0.00000000	          0.00000000	          0.00000000	          0.00000000	          0.00000000	          0.00000000	          2.70849657	          0.00000000	          0.00000000	          0.00000000	          0.00000000	
          0.54000000	        144.80641535	        753.35703951	        -29.86888524	         -0.78481110	          0.00000000	          0.06386811	          0.00000000	          0.00000000	          0.00000000	          0.00000000	          0.00000000	          0.00000000	          0.00000000	          2.67644255	          0.00000000	          0.00000000	          0.00000000	          0.00000000	
          0.54400000	        151.57604923	        761.07569691	        -30.56279257	         -0.78443287	          0.00000000	          0.06375018	          0.00000000	          0.00000000	          0.00000000	          0.00000000	          0.00000000	          0.00000000	          0.00000000	          2.63986789	          0.00000000	          0.00000000	          0.00000000	          0.00000000	
          0.54800000	        158.40687223	        767.39383702	        -31.00988515	         -0.78405153	          0.00000000	          0.06363187	          0.00000000	          0.00000000	          0.00000000	          0.00000000	          0.00000000	          0.00000000	          0.00000000	          2.60113943	          0.00000000	          0.00000000	          0.00000000	          0.00000000	
          0.55200000	        165.21788583	        772.17623547	        -31.22571249	         -0.78366512	          0.00000000	          0.06351172	          0.00000000	          0.00000000	          0.00000000	          0.00000000	          0.00000000	          0.00000000	          0.00000000	          2.55914472	          0.00000000	          0.00000000	          0.00000000	          0.00000000	
          0.55600000	        171.95370364	        775.27363626	        -31.25358350	         -0.78327484	          0.00000000	          0.06338785	          0.00000000	          0.00000000	          0.00000000	          0.00000000	          0.00000000	          0.00000000	          0.00000000	          2.50944893	          0.00000000	          0.00000000	          0.00000000	          0.00000000	
          0.56000000	        178.58380913	        776.53541831	        -31.15168446	         -0.78287682	          0.00000000	          0.06325987	          0.00000000	          0.00000000	          0.00000000	          0.00000000	          0.00000000	          0.00000000	          0.00000000	          2.44536781	          0.00000000	          0.00000000	          0.00000000	          0.00000000	
